<svg width="34" height="25" viewBox="0 0 34 25" fill="none" xmlns="http://www.w3.org/2000/svg">
<path d="M9.43164 18.7842C9.43164 20.4322 8.97548 21.7363 8.06348 22.6963C7.15151 23.6722 5.93589 24.1601 4.41602 24.1602C3.60005 24.1602 2.84813 24.0641 2.16016 23.8721C1.47217 23.6801 0.751988 23.3284 0 22.8164L1.44043 20.4883C1.85627 20.7601 2.22404 20.9441 2.54395 21.04C2.87989 21.136 3.27182 21.1846 3.71973 21.1846C4.35969 21.1846 4.87186 20.9364 5.25586 20.4404C5.65586 19.9604 5.85645 19.3522 5.85645 18.6162V6.52051H9.43164V18.7842ZM24.4912 15.5205H30.2539V6.52051H33.8301V18.4004H24.4912V18.4727C24.4912 20.2965 23.9389 21.6969 22.835 22.6729C21.731 23.6646 20.171 24.1602 18.1553 24.1602C17.0673 24.1601 16.1232 24.0725 15.3232 23.8965C14.5393 23.7365 13.7789 23.4408 13.043 23.0088L14.4355 20.3926C15.0914 20.7285 15.7073 20.9609 16.2832 21.0889C16.8591 21.2328 17.4591 21.3047 18.083 21.3047C18.995 21.3047 19.6919 21.0565 20.1719 20.5605C20.6677 20.0646 20.915 19.3844 20.915 18.5205V18.4004H18.5391C16.8272 18.4003 15.507 17.9199 14.5791 16.96C13.6674 15.984 13.211 14.6003 13.2109 12.8086C13.2109 11.4486 13.5393 10.304 14.1953 9.37598C14.8673 8.43209 15.7797 7.7202 16.9316 7.24023C18.0836 6.76031 19.3879 6.52051 20.8438 6.52051H24.4912V15.5205ZM20.1475 9.40039C19.1235 9.40039 18.3231 9.68865 17.7471 10.2646C17.1714 10.8405 16.8839 11.6563 16.8838 12.7119C16.8838 14.5839 17.6758 15.5205 19.2598 15.5205H20.915V9.40039H20.1475ZM30.9141 0C31.4097 8.48896e-05 31.7935 0.152336 32.0654 0.456055C32.3534 0.760055 32.498 1.18452 32.498 1.72852C32.498 2.2564 32.3533 2.68004 32.0654 3C31.7775 3.30391 31.3939 3.45597 30.9141 3.45605C30.4181 3.45605 30.0253 3.304 29.7373 3C29.4496 2.68007 29.3057 2.25625 29.3057 1.72852C29.3057 1.18452 29.4493 0.760055 29.7373 0.456055C30.0093 0.152065 30.4021 0 30.9141 0Z" fill="black"/>
</svg>
