<svg width="24" height="25" viewBox="0 0 24 25" fill="none" xmlns="http://www.w3.org/2000/svg">
<path d="M15 11.8011L12 14.8011L9 11.8011M12 3.80113C10.8181 3.80113 9.64778 4.03392 8.55585 4.48622C7.46392 4.93851 6.47177 5.60144 5.63604 6.43717C4.80031 7.2729 4.13738 8.26505 3.68508 9.35698C3.23279 10.4489 3 11.6192 3 12.8011C3 13.983 3.23279 15.1534 3.68508 16.2453C4.13738 17.3372 4.80031 18.3294 5.63604 19.1651C6.47177 20.0008 7.46392 20.6638 8.55585 21.116C9.64778 21.5683 10.8181 21.8011 12 21.8011C14.3869 21.8011 16.6761 20.8529 18.364 19.1651C20.0518 17.4773 21 15.1881 21 12.8011C21 10.4142 20.0518 8.125 18.364 6.43717C16.6761 4.74934 14.3869 3.80113 12 3.80113Z" stroke="#828282" stroke-width="2" stroke-linecap="round" stroke-linejoin="round"/>
</svg>
