<svg width="52" height="52" viewBox="0 0 52 52" fill="none" xmlns="http://www.w3.org/2000/svg">
<path d="M0 12C0 5.37258 5.37258 0 12 0L40 0C46.6274 0 52 5.37258 52 12L52 40C52 46.6274 46.6274 52 40 52L12 52C5.37258 52 0 46.6274 0 40L0 12Z" fill="#EAEBEF"/>
<path d="M21.5581 8.70424C22.6855 7.49796 23.2493 6.89482 23.8515 6.55881C25.1869 5.81373 26.8131 5.81373 28.1485 6.55881C28.7507 6.89482 29.3145 7.49796 30.4419 8.70424C30.9498 9.2477 31.2038 9.51943 31.4862 9.73761C32.1063 10.2165 32.8428 10.5216 33.6199 10.6214C33.9739 10.6669 34.3456 10.6543 35.0891 10.6292C36.7392 10.5734 37.5643 10.5455 38.2278 10.7338C39.6989 11.1512 40.8488 12.3011 41.2662 13.7722C41.4545 14.4357 41.4266 15.2608 41.3708 16.9109C41.3457 17.6544 41.3331 18.0261 41.3786 18.3801C41.4784 19.1572 41.7835 19.8937 42.2624 20.5138C42.4806 20.7962 42.7523 21.0502 43.2958 21.5581C44.502 22.6855 45.1052 23.2493 45.4412 23.8515C46.1863 25.1869 46.1863 26.8131 45.4412 28.1485C45.1052 28.7507 44.502 29.3145 43.2958 30.4419C42.7523 30.9498 42.4806 31.2038 42.2624 31.4862C41.7835 32.1063 41.4784 32.8428 41.3786 33.6199C41.3331 33.9739 41.3457 34.3456 41.3708 35.0891C41.4266 36.7392 41.4545 37.5643 41.2662 38.2278C40.8488 39.6989 39.6989 40.8488 38.2278 41.2662C37.5643 41.4545 36.7392 41.4266 35.0891 41.3708C34.3456 41.3457 33.9739 41.3331 33.6199 41.3786C32.8428 41.4784 32.1063 41.7835 31.4862 42.2624C31.2038 42.4806 30.9498 42.7523 30.4419 43.2958C29.3145 44.502 28.7507 45.1052 28.1485 45.4412C26.8131 46.1863 25.1869 46.1863 23.8515 45.4412C23.2493 45.1052 22.6855 44.502 21.5581 43.2958C21.0502 42.7523 20.7962 42.4806 20.5138 42.2624C19.8937 41.7835 19.1572 41.4784 18.3801 41.3786C18.0261 41.3331 17.6544 41.3457 16.9109 41.3708C15.2608 41.4266 14.4357 41.4545 13.7722 41.2662C12.3011 40.8488 11.1512 39.6989 10.7338 38.2278C10.5455 37.5643 10.5734 36.7392 10.6292 35.0891C10.6543 34.3456 10.6669 33.9739 10.6214 33.6199C10.5216 32.8428 10.2165 32.1063 9.73761 31.4862C9.51943 31.2038 9.2477 30.9498 8.70424 30.4419C7.49796 29.3145 6.89482 28.7507 6.55881 28.1485C5.81373 26.8131 5.81373 25.1869 6.55881 23.8515C6.89482 23.2493 7.49796 22.6855 8.70424 21.5581C9.2477 21.0502 9.51943 20.7962 9.73761 20.5138C10.2165 19.8937 10.5216 19.1572 10.6214 18.3801C10.6669 18.0261 10.6543 17.6544 10.6292 16.9109C10.5734 15.2608 10.5455 14.4357 10.7338 13.7722C11.1512 12.3011 12.3011 11.1512 13.7722 10.7338C14.4357 10.5455 15.2608 10.5734 16.9109 10.6292C17.6544 10.6543 18.0261 10.6669 18.3801 10.6214C19.1572 10.5216 19.8937 10.2165 20.5138 9.73761C20.7962 9.51943 21.0502 9.2477 21.5581 8.70424Z" stroke="#9799A0" stroke-width="3"/>
</svg>
