<svg width="40" height="41" viewBox="0 0 40 41" fill="none" xmlns="http://www.w3.org/2000/svg">
<rect x="0.5" y="0.772728" width="39" height="39" rx="16.5" fill="white"/>
<rect x="0.5" y="0.772728" width="39" height="39" rx="16.5" stroke="#E0E0E0"/>
<path d="M21 27.2729C19.6318 26.483 18.0798 26.0672 16.5 26.0672C14.9202 26.0672 13.3682 26.483 12 27.2729V14.2729C13.3682 13.483 14.9202 13.0672 16.5 13.0672C18.0798 13.0672 19.6318 13.483 21 14.2729M21 27.2729C22.3682 26.483 23.9202 26.0672 25.5 26.0672C27.0798 26.0672 28.6318 26.483 30 27.2729V14.2729C28.6318 13.483 27.0798 13.0672 25.5 13.0672C23.9202 13.0672 22.3682 13.483 21 14.2729M21 27.2729V14.2729" stroke="#828282" stroke-width="2" stroke-linecap="round" stroke-linejoin="round"/>
</svg>
