<svg width="30" height="30" viewBox="0 0 30 30" fill="none" xmlns="http://www.w3.org/2000/svg">
<g clip-path="url(#clip0_295_171)">
<path d="M11.25 23.75C5 25.625 5 20.625 2.5 20M20 27.5V22.6625C20.0469 22.0665 19.9664 21.4673 19.7638 20.9047C19.5612 20.3422 19.2412 19.8293 18.825 19.4C22.75 18.9625 26.875 17.475 26.875 10.65C26.8747 8.90478 26.2034 7.2265 25 5.9625C25.5698 4.43563 25.5295 2.74794 24.8875 1.25C24.8875 1.25 23.4125 0.8125 20 3.1C17.135 2.32353 14.115 2.32353 11.25 3.1C7.8375 0.8125 6.3625 1.25 6.3625 1.25C5.72047 2.74794 5.68018 4.43563 6.25 5.9625C5.03766 7.23587 4.36565 8.92933 4.375 10.6875C4.375 17.4625 8.5 18.95 12.425 19.4375C12.0137 19.8625 11.6966 20.3693 11.4941 20.9249C11.2917 21.4805 11.2085 22.0726 11.25 22.6625V27.5" stroke="#2ED62B" stroke-width="2.5" stroke-linecap="round" stroke-linejoin="round"/>
</g>
<defs>
<clipPath id="clip0_295_171">
<rect width="30" height="30" fill="white"/>
</clipPath>
</defs>
</svg>
