<svg width="28" height="28" viewBox="0 0 28 28" fill="none" xmlns="http://www.w3.org/2000/svg">
<path d="M14 28C12.0867 28 10.2783 27.6325 8.575 26.8975C6.87167 26.1625 5.38417 25.1592 4.1125 23.8875C2.84083 22.6158 1.8375 21.1283 1.1025 19.425C0.3675 17.7217 0 15.9133 0 14C0 12.0633 0.3675 10.2492 1.1025 8.5575C1.8375 6.86583 2.84083 5.38417 4.1125 4.1125C5.38417 2.84083 6.87167 1.8375 8.575 1.1025C10.2783 0.3675 12.0867 0 14 0C15.9367 0 17.7508 0.3675 19.4425 1.1025C21.1342 1.8375 22.6158 2.84083 23.8875 4.1125C25.1592 5.38417 26.1625 6.86583 26.8975 8.5575C27.6325 10.2492 28 12.0633 28 14C28 15.9133 27.6325 17.7217 26.8975 19.425C26.1625 21.1283 25.1592 22.6158 23.8875 23.8875C22.6158 25.1592 21.1342 26.1625 19.4425 26.8975C17.7508 27.6325 15.9367 28 14 28ZM14 25.13C14.6067 24.29 15.1317 23.415 15.575 22.505C16.0183 21.595 16.38 20.6267 16.66 19.6H11.34C11.62 20.6267 11.9817 21.595 12.425 22.505C12.8683 23.415 13.3933 24.29 14 25.13ZM10.36 24.57C9.94 23.8 9.5725 23.0008 9.2575 22.1725C8.9425 21.3442 8.68 20.4867 8.47 19.6H4.34C5.01667 20.7667 5.8625 21.7817 6.8775 22.645C7.8925 23.5083 9.05333 24.15 10.36 24.57ZM17.64 24.57C18.9467 24.15 20.1075 23.5083 21.1225 22.645C22.1375 21.7817 22.9833 20.7667 23.66 19.6H19.53C19.32 20.4867 19.0575 21.3442 18.7425 22.1725C18.4275 23.0008 18.06 23.8 17.64 24.57ZM3.15 16.8H7.91C7.84 16.3333 7.7875 15.8725 7.7525 15.4175C7.7175 14.9625 7.7 14.49 7.7 14C7.7 13.51 7.7175 13.0375 7.7525 12.5825C7.7875 12.1275 7.84 11.6667 7.91 11.2H3.15C3.03333 11.6667 2.94583 12.1275 2.8875 12.5825C2.82917 13.0375 2.8 13.51 2.8 14C2.8 14.49 2.82917 14.9625 2.8875 15.4175C2.94583 15.8725 3.03333 16.3333 3.15 16.8ZM10.71 16.8H17.29C17.36 16.3333 17.4125 15.8725 17.4475 15.4175C17.4825 14.9625 17.5 14.49 17.5 14C17.5 13.51 17.4825 13.0375 17.4475 12.5825C17.4125 12.1275 17.36 11.6667 17.29 11.2H10.71C10.64 11.6667 10.5875 12.1275 10.5525 12.5825C10.5175 13.0375 10.5 13.51 10.5 14C10.5 14.49 10.5175 14.9625 10.5525 15.4175C10.5875 15.8725 10.64 16.3333 10.71 16.8ZM20.09 16.8H24.85C24.9667 16.3333 25.0542 15.8725 25.1125 15.4175C25.1708 14.9625 25.2 14.49 25.2 14C25.2 13.51 25.1708 13.0375 25.1125 12.5825C25.0542 12.1275 24.9667 11.6667 24.85 11.2H20.09C20.16 11.6667 20.2125 12.1275 20.2475 12.5825C20.2825 13.0375 20.3 13.51 20.3 14C20.3 14.49 20.2825 14.9625 20.2475 15.4175C20.2125 15.8725 20.16 16.3333 20.09 16.8ZM19.53 8.4H23.66C22.9833 7.23333 22.1375 6.21833 21.1225 5.355C20.1075 4.49167 18.9467 3.85 17.64 3.43C18.06 4.2 18.4275 4.99917 18.7425 5.8275C19.0575 6.65583 19.32 7.51333 19.53 8.4ZM11.34 8.4H16.66C16.38 7.37333 16.0183 6.405 15.575 5.495C15.1317 4.585 14.6067 3.71 14 2.87C13.3933 3.71 12.8683 4.585 12.425 5.495C11.9817 6.405 11.62 7.37333 11.34 8.4ZM4.34 8.4H8.47C8.68 7.51333 8.9425 6.65583 9.2575 5.8275C9.5725 4.99917 9.94 4.2 10.36 3.43C9.05333 3.85 7.8925 4.49167 6.8775 5.355C5.8625 6.21833 5.01667 7.23333 4.34 8.4Z" fill="#FEF7FF"/>
</svg>
