<svg width="64" height="22" viewBox="0 0 64 22" fill="none" xmlns="http://www.w3.org/2000/svg">
<path d="M14.1943 16.8604V0H16.9189V21.4746H14.0039L2.72461 4.59961V21.4746H0V0H2.91504L14.1943 16.8604ZM27.6855 5.56641C29.8242 5.56641 31.5723 6.26953 32.9297 7.67578C34.2871 9.07227 34.9658 11.0059 34.9658 13.4766C34.9658 15.4785 34.6631 17.0557 34.0576 18.208C33.4619 19.3506 32.5879 20.2393 31.4355 20.874C30.9864 21.1235 30.5204 21.3232 30.0381 21.4746H25.2275C24.1391 21.1373 23.1951 20.558 22.3975 19.7314C21.0596 18.335 20.3906 16.3232 20.3906 13.6963C20.3906 10.8154 21.1914 8.68164 22.793 7.29492C24.1309 6.14258 25.7617 5.56641 27.6855 5.56641ZM44.3848 5.56641C46.5234 5.56641 48.2715 6.26953 49.6289 7.67578C50.9863 9.07227 51.665 11.0059 51.665 13.4766C51.665 15.4785 51.3623 17.0557 50.7568 18.208C50.1611 19.3506 49.2871 20.2393 48.1348 20.874C47.6856 21.1235 47.2196 21.3232 46.7373 21.4746H41.9268C40.8383 21.1373 39.8944 20.558 39.0967 19.7314C37.7588 18.335 37.0898 16.3232 37.0898 13.6963C37.0898 10.8154 37.8906 8.68164 39.4922 7.29492C40.8301 6.14258 42.4609 5.56641 44.3848 5.56641ZM60.4834 5.56641C61.3721 5.56641 62.2754 5.84961 63.1934 6.41602L62.2852 8.8623C61.6406 8.48145 60.9961 8.29102 60.3516 8.29102C59.7754 8.29102 59.2578 8.4668 58.7988 8.81836C58.3398 9.16016 58.0127 9.63867 57.8174 10.2539C57.5244 11.1914 57.3779 12.2168 57.3779 13.3301V21.4746H54.7412V5.91797H57.1143V8.27637C57.7197 7.17285 58.2764 6.44531 58.7842 6.09375C59.3018 5.74219 59.8682 5.56641 60.4834 5.56641ZM27.6855 7.74902C26.3672 7.74902 25.2734 8.24219 24.4043 9.22852C23.5352 10.2148 23.1006 11.7041 23.1006 13.6963C23.1006 15.6885 23.5352 17.1826 24.4043 18.1787C25.2734 19.165 26.3672 19.6582 27.6855 19.6582C28.9941 19.6582 30.083 19.1602 30.9521 18.1641C31.8213 17.168 32.2559 15.6494 32.2559 13.6084C32.2559 11.6846 31.8164 10.2295 30.9375 9.24316C30.0684 8.24707 28.9844 7.74902 27.6855 7.74902ZM44.3848 7.74902C43.0664 7.74902 41.9727 8.24219 41.1035 9.22852C40.2344 10.2148 39.7998 11.7041 39.7998 13.6963C39.7998 15.6885 40.2344 17.1826 41.1035 18.1787C41.9727 19.165 43.0664 19.6582 44.3848 19.6582C45.6934 19.6582 46.7822 19.1602 47.6514 18.1641C48.5205 17.168 48.9551 15.6494 48.9551 13.6084C48.9551 11.6846 48.5156 10.2295 47.6367 9.24316C46.7676 8.24707 45.6836 7.74902 44.3848 7.74902Z" fill="black"/>
</svg>
