<svg width="210" height="150" viewBox="0 0 210 150" fill="none" xmlns="http://www.w3.org/2000/svg">
<g clip-path="url(#clip0_1_142)">
<path d="M23.1944 149.719C21.513 150.368 19.5945 149.827 18.4736 148.4C16.9 146.389 17.5036 143.448 19.7454 142.216C24.0567 139.859 31.5798 135.318 38.9304 129.35C53.7179 117.371 57.9214 98.7747 37.3137 90.8822C14.7013 82.2546 0 65.2371 0 45.2357C0 20.2609 22.6124 0 47.5098 0C70.8766 0 90.4712 19.3527 92.7346 42.1868C92.7346 42.1868 93.8339 45.2141 94.1141 56.8473C94.7824 83.6601 86.2246 125.458 23.1729 149.719H23.1944Z" fill="#29292B"/>
<path d="M139.037 149.719C137.356 150.368 135.437 149.827 134.316 148.4C132.743 146.389 133.346 143.448 135.588 142.216C139.899 139.859 147.423 135.318 154.773 129.35C169.561 117.371 173.764 98.7747 153.156 90.8822C130.566 82.2329 115.843 65.2155 115.843 45.2357C115.843 20.2609 138.455 0 163.353 0C186.719 0 206.314 19.3527 208.577 42.1868C208.577 42.1868 209.677 45.2141 209.957 56.8473C210.625 83.6601 202.067 125.458 139.016 149.719H139.037Z" fill="#29292B"/>
</g>
<defs>
<clipPath id="clip0_1_142">
<rect width="210" height="150" fill="white"/>
</clipPath>
</defs>
</svg>
