<svg width="250" height="40" viewBox="0 0 250 40" fill="none" xmlns="http://www.w3.org/2000/svg">
<path d="M27.7 30.95C27.2333 31.4167 26.55 31.7667 25.65 32C24.7833 32.2667 23.7333 32.4 22.5 32.4C21.2667 32.4 20.1 32.2167 19 31.85C17.9 31.4833 17 30.6 16.3 29.2L11.35 19.1C10.85 18.0667 10.4 17.1 10 16.2C9.6 15.2667 9.16667 14.2 8.7 13L8.4 13.05C8.53333 14.85 8.6 16.6833 8.6 18.55C8.63333 20.4167 8.65 22.25 8.65 24.05V31.8C8.28333 31.9 7.71667 32 6.95 32.1C6.21667 32.2 5.48333 32.25 4.75 32.25C4.01667 32.25 3.36667 32.2 2.8 32.1C2.23333 32 1.76667 31.8 1.4 31.5C1.03333 31.2 0.75 30.8 0.55 30.3C0.35 29.7667 0.25 29.0833 0.25 28.25V3.25C0.716667 2.58333 1.43333 2.08333 2.4 1.75C3.36667 1.41667 4.4 1.25 5.5 1.25C6.73333 1.25 7.9 1.45 9 1.85C10.1333 2.21667 11.0333 3.08333 11.7 4.45L16.7 14.55C17.2 15.5833 17.65 16.5667 18.05 17.5C18.45 18.4 18.8833 19.45 19.35 20.65L19.6 20.6C19.4667 18.8 19.3833 17 19.35 15.2C19.3167 13.4 19.3 11.6 19.3 9.8V1.7C19.6667 1.6 20.2167 1.5 20.95 1.4C21.7167 1.3 22.4667 1.25 23.2 1.25C24.6667 1.25 25.7833 1.51667 26.55 2.05C27.3167 2.55 27.7 3.61666 27.7 5.25V30.95ZM58.6855 19.85C58.6855 21.9167 58.3689 23.7667 57.7355 25.4C57.1022 27 56.2022 28.35 55.0355 29.45C53.9022 30.55 52.5355 31.3833 50.9355 31.95C49.3355 32.5167 47.5522 32.8 45.5855 32.8C43.6189 32.8 41.8355 32.5 40.2355 31.9C38.6355 31.3 37.2522 30.45 36.0855 29.35C34.9522 28.2167 34.0689 26.85 33.4355 25.25C32.8022 23.65 32.4855 21.85 32.4855 19.85C32.4855 17.8833 32.8022 16.1 33.4355 14.5C34.0689 12.9 34.9522 11.55 36.0855 10.45C37.2522 9.31667 38.6355 8.45 40.2355 7.85C41.8355 7.25 43.6189 6.95 45.5855 6.95C47.5522 6.95 49.3355 7.26666 50.9355 7.9C52.5355 8.5 53.9022 9.36667 55.0355 10.5C56.2022 11.6 57.1022 12.95 57.7355 14.55C58.3689 16.15 58.6855 17.9167 58.6855 19.85ZM41.1855 19.85C41.1855 21.8833 41.5689 23.45 42.3355 24.55C43.1355 25.6167 44.2355 26.15 45.6355 26.15C47.0355 26.15 48.1022 25.6 48.8355 24.5C49.6022 23.4 49.9855 21.85 49.9855 19.85C49.9855 17.85 49.6022 16.3167 48.8355 15.25C48.0689 14.15 46.9855 13.6 45.5855 13.6C44.1855 13.6 43.1022 14.15 42.3355 15.25C41.5689 16.3167 41.1855 17.85 41.1855 19.85ZM87.9824 19.85C87.9824 21.9167 87.6658 23.7667 87.0324 25.4C86.3991 27 85.4991 28.35 84.3324 29.45C83.1991 30.55 81.8324 31.3833 80.2324 31.95C78.6324 32.5167 76.8491 32.8 74.8824 32.8C72.9158 32.8 71.1324 32.5 69.5324 31.9C67.9324 31.3 66.5491 30.45 65.3824 29.35C64.2491 28.2167 63.3658 26.85 62.7324 25.25C62.0991 23.65 61.7824 21.85 61.7824 19.85C61.7824 17.8833 62.0991 16.1 62.7324 14.5C63.3658 12.9 64.2491 11.55 65.3824 10.45C66.5491 9.31667 67.9324 8.45 69.5324 7.85C71.1324 7.25 72.9158 6.95 74.8824 6.95C76.8491 6.95 78.6324 7.26666 80.2324 7.9C81.8324 8.5 83.1991 9.36667 84.3324 10.5C85.4991 11.6 86.3991 12.95 87.0324 14.55C87.6658 16.15 87.9824 17.9167 87.9824 19.85ZM70.4824 19.85C70.4824 21.8833 70.8658 23.45 71.6324 24.55C72.4324 25.6167 73.5324 26.15 74.9324 26.15C76.3324 26.15 77.3991 25.6 78.1324 24.5C78.8991 23.4 79.2824 21.85 79.2824 19.85C79.2824 17.85 78.8991 16.3167 78.1324 15.25C77.3658 14.15 76.2824 13.6 74.8824 13.6C73.4824 13.6 72.3991 14.15 71.6324 15.25C70.8658 16.3167 70.4824 17.85 70.4824 19.85ZM100.629 31.95C100.296 32.05 99.7626 32.15 99.0293 32.25C98.3293 32.35 97.596 32.4 96.8293 32.4C96.096 32.4 95.4293 32.35 94.8293 32.25C94.2626 32.15 93.7793 31.95 93.3793 31.65C92.9793 31.35 92.6626 30.95 92.4293 30.45C92.2293 29.9167 92.1293 29.2333 92.1293 28.4V13.4C92.1293 12.6333 92.2626 11.9833 92.5293 11.45C92.8293 10.8833 93.246 10.3833 93.7793 9.95C94.3126 9.51667 94.9626 9.13333 95.7293 8.8C96.5293 8.43333 97.3793 8.11667 98.2793 7.85C99.1793 7.58333 100.113 7.38333 101.079 7.25C102.046 7.08333 103.013 7 103.979 7C105.579 7 106.846 7.31667 107.779 7.95C108.713 8.55 109.179 9.55 109.179 10.95C109.179 11.4167 109.113 11.8833 108.979 12.35C108.846 12.7833 108.679 13.1833 108.479 13.55C107.779 13.55 107.063 13.5833 106.329 13.65C105.596 13.7167 104.879 13.8167 104.179 13.95C103.479 14.0833 102.813 14.2333 102.179 14.4C101.579 14.5333 101.063 14.7 100.629 14.9V31.95ZM111.836 16.8C111.836 14.2 112.236 11.9 113.036 9.9C113.869 7.9 114.986 6.23333 116.386 4.9C117.819 3.53333 119.486 2.5 121.386 1.8C123.319 1.1 125.403 0.75 127.636 0.75C129.869 0.75 131.936 1.1 133.836 1.8C135.769 2.5 137.453 3.53333 138.886 4.9C140.319 6.23333 141.436 7.9 142.236 9.9C143.069 11.9 143.486 14.2 143.486 16.8C143.486 20.0667 142.886 22.85 141.686 25.15C140.486 27.4167 138.853 29.2 136.786 30.5C137.286 30.7333 137.869 30.9833 138.536 31.25C139.236 31.5167 139.953 31.7833 140.686 32.05C141.453 32.3167 142.236 32.5667 143.036 32.8C143.836 33.0667 144.586 33.3 145.286 33.5C145.319 33.7 145.336 33.8667 145.336 34C145.336 34.1667 145.336 34.3167 145.336 34.45C145.336 36.35 144.836 37.7333 143.836 38.6C142.869 39.4667 141.586 39.9 139.986 39.9C138.453 39.9 136.869 39.4667 135.236 38.6C133.603 37.7667 131.936 36.55 130.236 34.95L128.036 32.9H127.636C125.369 32.9 123.269 32.55 121.336 31.85C119.403 31.1167 117.736 30.0667 116.336 28.7C114.936 27.3333 113.836 25.65 113.036 23.65C112.236 21.65 111.836 19.3667 111.836 16.8ZM120.836 16.8C120.836 19.8333 121.453 22.1 122.686 23.6C123.919 25.1 125.569 25.85 127.636 25.85C129.736 25.85 131.403 25.1 132.636 23.6C133.869 22.1 134.486 19.8333 134.486 16.8C134.486 13.8 133.869 11.55 132.636 10.05C131.436 8.55 129.786 7.8 127.686 7.8C125.619 7.8 123.953 8.55 122.686 10.05C121.453 11.5167 120.836 13.7667 120.836 16.8ZM147.94 8.05C148.273 7.95 148.79 7.85 149.49 7.75C150.223 7.65 150.973 7.6 151.74 7.6C152.473 7.6 153.123 7.65 153.69 7.75C154.29 7.85 154.79 8.05 155.19 8.35C155.59 8.65 155.89 9.06667 156.09 9.6C156.323 10.1 156.44 10.7667 156.44 11.6V22.35C156.44 23.7167 156.773 24.7 157.44 25.3C158.107 25.8667 159.073 26.15 160.34 26.15C161.107 26.15 161.723 26.0833 162.19 25.95C162.69 25.8167 163.073 25.6833 163.34 25.55V8.05C163.673 7.95 164.19 7.85 164.89 7.75C165.623 7.65 166.373 7.6 167.14 7.6C167.873 7.6 168.523 7.65 169.09 7.75C169.69 7.85 170.19 8.05 170.59 8.35C170.99 8.65 171.29 9.06667 171.49 9.6C171.723 10.1 171.84 10.7667 171.84 11.6V26.8C171.84 28.4667 171.14 29.7167 169.74 30.55C168.573 31.2833 167.173 31.8333 165.54 32.2C163.94 32.6 162.19 32.8 160.29 32.8C158.49 32.8 156.823 32.6 155.29 32.2C153.79 31.8 152.49 31.1833 151.39 30.35C150.29 29.5167 149.44 28.45 148.84 27.15C148.24 25.8167 147.94 24.2167 147.94 22.35V8.05ZM202.191 19.85C202.191 21.9167 201.875 23.7667 201.241 25.4C200.608 27 199.708 28.35 198.541 29.45C197.408 30.55 196.041 31.3833 194.441 31.95C192.841 32.5167 191.058 32.8 189.091 32.8C187.125 32.8 185.341 32.5 183.741 31.9C182.141 31.3 180.758 30.45 179.591 29.35C178.458 28.2167 177.575 26.85 176.941 25.25C176.308 23.65 175.991 21.85 175.991 19.85C175.991 17.8833 176.308 16.1 176.941 14.5C177.575 12.9 178.458 11.55 179.591 10.45C180.758 9.31667 182.141 8.45 183.741 7.85C185.341 7.25 187.125 6.95 189.091 6.95C191.058 6.95 192.841 7.26666 194.441 7.9C196.041 8.5 197.408 9.36667 198.541 10.5C199.708 11.6 200.608 12.95 201.241 14.55C201.875 16.15 202.191 17.9167 202.191 19.85ZM184.691 19.85C184.691 21.8833 185.075 23.45 185.841 24.55C186.641 25.6167 187.741 26.15 189.141 26.15C190.541 26.15 191.608 25.6 192.341 24.5C193.108 23.4 193.491 21.85 193.491 19.85C193.491 17.85 193.108 16.3167 192.341 15.25C191.575 14.15 190.491 13.6 189.091 13.6C187.691 13.6 186.608 14.15 185.841 15.25C185.075 16.3167 184.691 17.85 184.691 19.85ZM214.838 23.65C214.838 24.5167 215.105 25.1333 215.638 25.5C216.205 25.8667 216.988 26.05 217.988 26.05C218.488 26.05 219.005 26.0167 219.538 25.95C220.072 25.85 220.538 25.7333 220.938 25.6C221.238 25.9667 221.488 26.3833 221.688 26.85C221.922 27.2833 222.038 27.8167 222.038 28.45C222.038 29.7167 221.555 30.75 220.588 31.55C219.655 32.35 217.988 32.75 215.588 32.75C212.655 32.75 210.388 32.0833 208.788 30.75C207.222 29.4167 206.438 27.25 206.438 24.25V2.85C206.805 2.75 207.322 2.65 207.988 2.55C208.688 2.41666 209.422 2.35 210.188 2.35C211.655 2.35 212.788 2.61666 213.588 3.15C214.422 3.65 214.838 4.73333 214.838 6.4V9.6H221.388C221.588 9.96667 221.772 10.4333 221.938 11C222.138 11.5333 222.238 12.1333 222.238 12.8C222.238 13.9667 221.972 14.8167 221.438 15.35C220.938 15.85 220.255 16.1 219.388 16.1H214.838V23.65ZM238.915 32.8C236.948 32.8 235.115 32.5333 233.415 32C231.748 31.4333 230.282 30.6 229.015 29.5C227.782 28.4 226.798 27.0167 226.065 25.35C225.365 23.6833 225.015 21.7333 225.015 19.5C225.015 17.3 225.365 15.4167 226.065 13.85C226.798 12.25 227.748 10.95 228.915 9.95C230.082 8.91667 231.415 8.16667 232.915 7.7C234.415 7.2 235.948 6.95 237.515 6.95C239.282 6.95 240.882 7.21666 242.315 7.75C243.782 8.28333 245.032 9.01667 246.065 9.95C247.132 10.8833 247.948 12 248.515 13.3C249.115 14.6 249.415 16.0167 249.415 17.55C249.415 18.6833 249.098 19.55 248.465 20.15C247.832 20.75 246.948 21.1333 245.815 21.3L233.465 23.15C233.832 24.25 234.582 25.0833 235.715 25.65C236.848 26.1833 238.148 26.45 239.615 26.45C240.982 26.45 242.265 26.2833 243.465 25.95C244.698 25.5833 245.698 25.1667 246.465 24.7C246.998 25.0333 247.448 25.5 247.815 26.1C248.182 26.7 248.365 27.3333 248.365 28C248.365 29.5 247.665 30.6167 246.265 31.35C245.198 31.9167 243.998 32.3 242.665 32.5C241.332 32.7 240.082 32.8 238.915 32.8ZM237.515 13.15C236.715 13.15 236.015 13.2833 235.415 13.55C234.848 13.8167 234.382 14.1667 234.015 14.6C233.648 15 233.365 15.4667 233.165 16C232.998 16.5 232.898 17.0167 232.865 17.55L241.415 16.15C241.315 15.4833 240.948 14.8167 240.315 14.15C239.682 13.4833 238.748 13.15 237.515 13.15Z" fill="white"/>
</svg>
